<svg width="80" height="80" viewBox="0 0 80 80" fill="none" xmlns="http://www.w3.org/2000/svg">
<g filter="url(#filter0_d_100_237)">
<circle cx="40" cy="36" r="36" fill="white"/>
<path  d="M23.299 31.8959C24.397 32.3848 25.3191 32.7086 26.4484 32.7228C23.2681 30.1129 22.5485 27.0061 24.2764 23.2838C28.2251 27.8282 33.1491 30.3041 39.146 30.6987C39.1151 30.0388 39.0477 29.4173 39.0649 28.7979C39.1165 26.9179 39.8512 25.3106 41.23 24.0117C43.9449 21.4537 48.0256 21.3123 50.8931 23.7188C51.3921 24.1376 51.7756 24.2178 52.3633 24.0501C53.4424 23.7424 54.4906 23.3741 55.4817 22.8549C55.6418 22.7714 55.802 22.6873 56.0419 22.562C55.4714 24.2333 54.4363 25.4426 53.0341 26.429C53.4685 26.3482 53.9063 26.2789 54.3373 26.1826C54.7813 26.0829 55.2233 25.9691 55.6583 25.8365C56.0893 25.7052 56.5099 25.5429 56.9354 25.3941C56.9567 25.4163 56.978 25.4379 57 25.4601C56.4288 26.1126 55.8865 26.7926 55.2769 27.4087C54.7772 27.9138 54.1888 28.3339 53.6589 28.8113C53.5434 28.9157 53.4397 29.1076 53.4452 29.2557C53.5441 32.0979 53.0073 34.8263 51.9193 37.4524C50.2388 41.5092 47.5658 44.7703 43.7573 47.0994C41.6197 48.4063 39.2938 49.2399 36.8139 49.6661C34.9781 49.9819 33.1292 50.0829 31.2727 49.9294C27.9852 49.6581 24.9259 48.6884 22.1217 46.9734C22.0852 46.9512 22.0557 46.9182 22 46.8711C25.8903 47.2098 29.3757 46.2745 32.5415 43.9313C29.232 43.6579 27.0395 42.0385 25.8325 39.1121C26.3927 39.1121 26.9123 39.133 27.4299 39.1061C27.9371 39.0798 28.4416 39.0037 28.9496 38.9007C27.3089 38.4651 25.9377 37.653 24.882 36.3602C23.8317 35.0741 23.2997 33.6069 23.299 31.8966V31.8959Z" fill="#FF0000"/>
</g>
<defs>
<filter id="filter0_d_100_237" x="0" y="0" width="80" height="80" filterUnits="userSpaceOnUse" color-interpolation-filters="sRGB">
<feFlood flood-opacity="0" result="BackgroundImageFix"/>
<feColorMatrix in="SourceAlpha" type="matrix" values="0 0 0 0 0 0 0 0 0 0 0 0 0 0 0 0 0 0 127 0" result="hardAlpha"/>
<feOffset dy="4"/>
<feGaussianBlur stdDeviation="2"/>
<feComposite in2="hardAlpha" operator="out"/>
<feColorMatrix type="matrix" values="0 0 0 0 0 0 0 0 0 0 0 0 0 0 0 0 0 0 0.25 0"/>
<feBlend mode="normal" in2="BackgroundImageFix" result="effect1_dropShadow_100_237"/>
<feBlend mode="normal" in="SourceGraphic" in2="effect1_dropShadow_100_237" result="shape"/>
</filter>
</defs>
</svg>
